<svg xmlns="http://www.w3.org/2000/svg" viewBox="0 0 960 480">
  <defs>
    <linearGradient id="sky" x2="0" y2="1"><stop stop-color="#dae5de"/><stop offset="1" stop-color="#f4eddb"/></linearGradient>
    <linearGradient id="ridge" x2="0" y2="1"><stop stop-color="#4b6866"/><stop offset="1" stop-color="#203f40"/></linearGradient>
  </defs>
  <path fill="url(#sky)" d="M0 0h960v480H0z"/>
  <circle cx="696" cy="114" r="49" fill="#f4d695" opacity=".75"/>
  <path fill="#a8c0b7" d="m0 273 119-160 124 153 149-220 174 215L715 77l245 229v174H0Z"/>
  <path fill="#769b92" d="m0 365 174-202 174 208 180-178 212 212 170-223 50 73v225H0Z"/>
  <path fill="url(#ridge)" d="m0 381 230-74 192 104 143-41 395-72v182H0Z"/>
  <path d="M237 480c12-52 113-81 193-72s125-80 199-84" fill="none" stroke="#d5c4a1" stroke-width="22"/>
  <path d="m420 415 123-42" stroke="#3c4640" stroke-width="16"/>
  <path d="m418 391 122-40" stroke="#ccb687" stroke-width="5"/>
  <path d="m428 394 1 23m35-33 1 23m35-35 1 23m35-35 1 23" stroke="#ccb687" stroke-width="4"/>
  <g fill="#394c43"><path d="m598 302 54-29 66 29-60 10Z"/><path d="M617 305h6v43h-6Zm70 0h6v35h-6Z"/></g>
  <path d="m602 302 58-36 63 36" fill="none" stroke="#7a654c" stroke-width="7"/>
  <g stroke="#2b5449" fill="none" stroke-width="6"><path d="m74 480 7-265m37 265-2-202m707 202 15-306m49 306-5-220"/><path d="m82 253-40-25m40 43 45-41m-12 90-36-18m763-75-39-43m33 78 47-42m-3 79 41-29" stroke-width="4"/></g>
  <path d="M0 318c193-40 325 7 483-13s325-21 477-64v55c-230 56-344-4-495 32s-316-18-465 28Z" fill="#edf0e7" opacity=".45"/>
</svg>
